<mxfile host="app.diagrams.net" modified="2020-05-07T14:04:46.796Z" agent="5.0 (Macintosh; Intel Mac OS X 10_15_4) AppleWebKit/537.36 (KHTML, like Gecko) Chrome/81.0.4044.129 Safari/537.36" etag="aOdbL0iZawGyKj8quK1E" version="13.0.8" type="github">
  <diagram id="FmN0XETraMll84xYsBEV" name="Page-1">
    <mxGraphModel dx="1376" dy="692" grid="1" gridSize="10" guides="1" tooltips="1" connect="1" arrows="1" fold="1" page="1" pageScale="1" pageWidth="850" pageHeight="1100" math="0" shadow="0">
      <root>
        <mxCell id="0" />
        <mxCell id="1" parent="0" />
        <mxCell id="zsDzwsMMpm5HTc5t6nmN-1" value="Giáo viên" style="rounded=0;whiteSpace=wrap;html=1;" parent="1" vertex="1">
          <mxGeometry x="100" y="650" width="120" height="60" as="geometry" />
        </mxCell>
        <mxCell id="zsDzwsMMpm5HTc5t6nmN-2" value="Quá trình đào tạo" style="rounded=0;whiteSpace=wrap;html=1;" parent="1" vertex="1">
          <mxGeometry x="560" y="440" width="120" height="60" as="geometry" />
        </mxCell>
        <mxCell id="zsDzwsMMpm5HTc5t6nmN-3" value="Mã giáo viên" style="rounded=1;whiteSpace=wrap;html=1;" parent="1" vertex="1">
          <mxGeometry x="40" y="590" width="80" height="30" as="geometry" />
        </mxCell>
        <mxCell id="zsDzwsMMpm5HTc5t6nmN-4" value="Họ tên" style="rounded=1;whiteSpace=wrap;html=1;" parent="1" vertex="1">
          <mxGeometry x="150" y="590" width="70" height="30" as="geometry" />
        </mxCell>
        <mxCell id="zsDzwsMMpm5HTc5t6nmN-5" value="Mã giáo viên" style="rounded=1;whiteSpace=wrap;html=1;" parent="1" vertex="1">
          <mxGeometry x="510" y="350" width="80" height="30" as="geometry" />
        </mxCell>
        <mxCell id="zsDzwsMMpm5HTc5t6nmN-6" value="Mã quá trình đào tạo" style="rounded=1;whiteSpace=wrap;html=1;" parent="1" vertex="1">
          <mxGeometry x="620" y="350" width="80" height="30" as="geometry" />
        </mxCell>
        <mxCell id="zsDzwsMMpm5HTc5t6nmN-8" value="Nơi đào tạo" style="rounded=1;whiteSpace=wrap;html=1;" parent="1" vertex="1">
          <mxGeometry x="620" y="540" width="80" height="30" as="geometry" />
        </mxCell>
        <mxCell id="zsDzwsMMpm5HTc5t6nmN-9" value="" style="endArrow=none;html=1;exitX=0.5;exitY=0;exitDx=0;exitDy=0;entryX=0.5;entryY=1;entryDx=0;entryDy=0;" parent="1" target="zsDzwsMMpm5HTc5t6nmN-2" edge="1">
          <mxGeometry width="50" height="50" relative="1" as="geometry">
            <mxPoint x="540" y="540" as="sourcePoint" />
            <mxPoint x="520" y="560" as="targetPoint" />
          </mxGeometry>
        </mxCell>
        <mxCell id="zsDzwsMMpm5HTc5t6nmN-10" value="" style="endArrow=none;html=1;exitX=0.5;exitY=0;exitDx=0;exitDy=0;" parent="1" source="zsDzwsMMpm5HTc5t6nmN-8" edge="1">
          <mxGeometry width="50" height="50" relative="1" as="geometry">
            <mxPoint x="470" y="610" as="sourcePoint" />
            <mxPoint x="620" y="500" as="targetPoint" />
          </mxGeometry>
        </mxCell>
        <mxCell id="zsDzwsMMpm5HTc5t6nmN-11" value="" style="endArrow=none;html=1;exitX=0.5;exitY=1;exitDx=0;exitDy=0;entryX=0.5;entryY=0;entryDx=0;entryDy=0;" parent="1" source="zsDzwsMMpm5HTc5t6nmN-5" target="zsDzwsMMpm5HTc5t6nmN-2" edge="1">
          <mxGeometry width="50" height="50" relative="1" as="geometry">
            <mxPoint x="470" y="610" as="sourcePoint" />
            <mxPoint x="520" y="560" as="targetPoint" />
          </mxGeometry>
        </mxCell>
        <mxCell id="zsDzwsMMpm5HTc5t6nmN-12" value="" style="endArrow=none;html=1;exitX=0.5;exitY=1;exitDx=0;exitDy=0;entryX=0.5;entryY=0;entryDx=0;entryDy=0;" parent="1" source="zsDzwsMMpm5HTc5t6nmN-6" target="zsDzwsMMpm5HTc5t6nmN-2" edge="1">
          <mxGeometry width="50" height="50" relative="1" as="geometry">
            <mxPoint x="470" y="610" as="sourcePoint" />
            <mxPoint x="520" y="560" as="targetPoint" />
          </mxGeometry>
        </mxCell>
        <mxCell id="zsDzwsMMpm5HTc5t6nmN-13" value="" style="endArrow=none;html=1;exitX=0.5;exitY=1;exitDx=0;exitDy=0;entryX=0.5;entryY=0;entryDx=0;entryDy=0;" parent="1" source="zsDzwsMMpm5HTc5t6nmN-3" target="zsDzwsMMpm5HTc5t6nmN-1" edge="1">
          <mxGeometry width="50" height="50" relative="1" as="geometry">
            <mxPoint x="470" y="610" as="sourcePoint" />
            <mxPoint x="520" y="560" as="targetPoint" />
          </mxGeometry>
        </mxCell>
        <mxCell id="zsDzwsMMpm5HTc5t6nmN-14" value="" style="endArrow=none;html=1;exitX=0.5;exitY=1;exitDx=0;exitDy=0;entryX=0.75;entryY=0;entryDx=0;entryDy=0;" parent="1" source="zsDzwsMMpm5HTc5t6nmN-4" target="zsDzwsMMpm5HTc5t6nmN-1" edge="1">
          <mxGeometry width="50" height="50" relative="1" as="geometry">
            <mxPoint x="470" y="610" as="sourcePoint" />
            <mxPoint x="520" y="560" as="targetPoint" />
          </mxGeometry>
        </mxCell>
        <mxCell id="zsDzwsMMpm5HTc5t6nmN-15" value="Có" style="rhombus;whiteSpace=wrap;html=1;" parent="1" vertex="1">
          <mxGeometry x="370" y="430" width="80" height="80" as="geometry" />
        </mxCell>
        <mxCell id="zsDzwsMMpm5HTc5t6nmN-16" value="1" style="text;html=1;strokeColor=none;fillColor=none;align=center;verticalAlign=middle;whiteSpace=wrap;rounded=0;" parent="1" vertex="1">
          <mxGeometry x="230" y="690" width="40" height="20" as="geometry" />
        </mxCell>
        <mxCell id="zsDzwsMMpm5HTc5t6nmN-17" value="n" style="text;html=1;strokeColor=none;fillColor=none;align=center;verticalAlign=middle;whiteSpace=wrap;rounded=0;" parent="1" vertex="1">
          <mxGeometry x="520" y="440" width="40" height="20" as="geometry" />
        </mxCell>
        <mxCell id="zsDzwsMMpm5HTc5t6nmN-18" value="" style="endArrow=none;html=1;exitX=1;exitY=0.5;exitDx=0;exitDy=0;entryX=0;entryY=0.5;entryDx=0;entryDy=0;" parent="1" source="zsDzwsMMpm5HTc5t6nmN-1" target="zsDzwsMMpm5HTc5t6nmN-15" edge="1">
          <mxGeometry width="50" height="50" relative="1" as="geometry">
            <mxPoint x="470" y="610" as="sourcePoint" />
            <mxPoint x="520" y="560" as="targetPoint" />
          </mxGeometry>
        </mxCell>
        <mxCell id="zsDzwsMMpm5HTc5t6nmN-19" value="" style="endArrow=none;html=1;exitX=1;exitY=0.5;exitDx=0;exitDy=0;entryX=0;entryY=0.5;entryDx=0;entryDy=0;" parent="1" source="zsDzwsMMpm5HTc5t6nmN-15" target="zsDzwsMMpm5HTc5t6nmN-2" edge="1">
          <mxGeometry width="50" height="50" relative="1" as="geometry">
            <mxPoint x="470" y="610" as="sourcePoint" />
            <mxPoint x="520" y="560" as="targetPoint" />
          </mxGeometry>
        </mxCell>
        <mxCell id="zsDzwsMMpm5HTc5t6nmN-20" value="Khen thưởng kỷ luật" style="rounded=0;whiteSpace=wrap;html=1;" parent="1" vertex="1">
          <mxGeometry x="560" y="680" width="120" height="60" as="geometry" />
        </mxCell>
        <mxCell id="zsDzwsMMpm5HTc5t6nmN-21" value="Mã khen thưởng, kỷ luật" style="rounded=1;whiteSpace=wrap;html=1;" parent="1" vertex="1">
          <mxGeometry x="490" y="590" width="100" height="30" as="geometry" />
        </mxCell>
        <mxCell id="zsDzwsMMpm5HTc5t6nmN-22" value="Ngày tháng" style="rounded=1;whiteSpace=wrap;html=1;" parent="1" vertex="1">
          <mxGeometry x="620" y="590" width="80" height="30" as="geometry" />
        </mxCell>
        <mxCell id="zsDzwsMMpm5HTc5t6nmN-23" value="Hình thức" style="rounded=1;whiteSpace=wrap;html=1;" parent="1" vertex="1">
          <mxGeometry x="500" y="780" width="80" height="30" as="geometry" />
        </mxCell>
        <mxCell id="zsDzwsMMpm5HTc5t6nmN-24" value="Lý do" style="rounded=1;whiteSpace=wrap;html=1;" parent="1" vertex="1">
          <mxGeometry x="620" y="780" width="80" height="30" as="geometry" />
        </mxCell>
        <mxCell id="zsDzwsMMpm5HTc5t6nmN-25" value="" style="endArrow=none;html=1;exitX=0.5;exitY=0;exitDx=0;exitDy=0;entryX=0.5;entryY=1;entryDx=0;entryDy=0;" parent="1" source="zsDzwsMMpm5HTc5t6nmN-23" target="zsDzwsMMpm5HTc5t6nmN-20" edge="1">
          <mxGeometry width="50" height="50" relative="1" as="geometry">
            <mxPoint x="470" y="850" as="sourcePoint" />
            <mxPoint x="520" y="800" as="targetPoint" />
          </mxGeometry>
        </mxCell>
        <mxCell id="zsDzwsMMpm5HTc5t6nmN-26" value="" style="endArrow=none;html=1;exitX=0.5;exitY=0;exitDx=0;exitDy=0;" parent="1" source="zsDzwsMMpm5HTc5t6nmN-24" edge="1">
          <mxGeometry width="50" height="50" relative="1" as="geometry">
            <mxPoint x="470" y="850" as="sourcePoint" />
            <mxPoint x="620" y="740" as="targetPoint" />
          </mxGeometry>
        </mxCell>
        <mxCell id="zsDzwsMMpm5HTc5t6nmN-27" value="" style="endArrow=none;html=1;exitX=0.5;exitY=1;exitDx=0;exitDy=0;entryX=0.5;entryY=0;entryDx=0;entryDy=0;" parent="1" source="zsDzwsMMpm5HTc5t6nmN-21" target="zsDzwsMMpm5HTc5t6nmN-20" edge="1">
          <mxGeometry width="50" height="50" relative="1" as="geometry">
            <mxPoint x="470" y="850" as="sourcePoint" />
            <mxPoint x="520" y="800" as="targetPoint" />
          </mxGeometry>
        </mxCell>
        <mxCell id="zsDzwsMMpm5HTc5t6nmN-28" value="" style="endArrow=none;html=1;exitX=0.5;exitY=1;exitDx=0;exitDy=0;entryX=0.5;entryY=0;entryDx=0;entryDy=0;" parent="1" source="zsDzwsMMpm5HTc5t6nmN-22" target="zsDzwsMMpm5HTc5t6nmN-20" edge="1">
          <mxGeometry width="50" height="50" relative="1" as="geometry">
            <mxPoint x="470" y="850" as="sourcePoint" />
            <mxPoint x="520" y="800" as="targetPoint" />
          </mxGeometry>
        </mxCell>
        <mxCell id="zsDzwsMMpm5HTc5t6nmN-29" value="Có" style="rhombus;whiteSpace=wrap;html=1;" parent="1" vertex="1">
          <mxGeometry x="370" y="670" width="80" height="80" as="geometry" />
        </mxCell>
        <mxCell id="zsDzwsMMpm5HTc5t6nmN-30" value="n" style="text;html=1;strokeColor=none;fillColor=none;align=center;verticalAlign=middle;whiteSpace=wrap;rounded=0;" parent="1" vertex="1">
          <mxGeometry x="520" y="680" width="40" height="20" as="geometry" />
        </mxCell>
        <mxCell id="zsDzwsMMpm5HTc5t6nmN-31" value="" style="endArrow=none;html=1;exitX=1;exitY=0.5;exitDx=0;exitDy=0;entryX=0;entryY=0.5;entryDx=0;entryDy=0;" parent="1" source="zsDzwsMMpm5HTc5t6nmN-29" target="zsDzwsMMpm5HTc5t6nmN-20" edge="1">
          <mxGeometry width="50" height="50" relative="1" as="geometry">
            <mxPoint x="470" y="850" as="sourcePoint" />
            <mxPoint x="520" y="800" as="targetPoint" />
          </mxGeometry>
        </mxCell>
        <mxCell id="zsDzwsMMpm5HTc5t6nmN-32" value="Bảng lương" style="rounded=0;whiteSpace=wrap;html=1;" parent="1" vertex="1">
          <mxGeometry x="560" y="970" width="120" height="60" as="geometry" />
        </mxCell>
        <mxCell id="zsDzwsMMpm5HTc5t6nmN-33" value="Hệ số lương" style="rounded=1;whiteSpace=wrap;html=1;" parent="1" vertex="1">
          <mxGeometry x="510" y="880" width="80" height="30" as="geometry" />
        </mxCell>
        <mxCell id="zsDzwsMMpm5HTc5t6nmN-34" value="Lương cơ bản" style="rounded=1;whiteSpace=wrap;html=1;" parent="1" vertex="1">
          <mxGeometry x="620" y="880" width="90" height="30" as="geometry" />
        </mxCell>
        <mxCell id="zsDzwsMMpm5HTc5t6nmN-35" value="Hệ số phụ cấp" style="rounded=1;whiteSpace=wrap;html=1;" parent="1" vertex="1">
          <mxGeometry x="590" y="1050" width="80" height="30" as="geometry" />
        </mxCell>
        <mxCell id="zsDzwsMMpm5HTc5t6nmN-37" value="" style="endArrow=none;html=1;exitX=0.5;exitY=0;exitDx=0;exitDy=0;entryX=0.5;entryY=1;entryDx=0;entryDy=0;" parent="1" source="zsDzwsMMpm5HTc5t6nmN-35" target="zsDzwsMMpm5HTc5t6nmN-32" edge="1">
          <mxGeometry width="50" height="50" relative="1" as="geometry">
            <mxPoint x="470" y="1140" as="sourcePoint" />
            <mxPoint x="520" y="1090" as="targetPoint" />
          </mxGeometry>
        </mxCell>
        <mxCell id="zsDzwsMMpm5HTc5t6nmN-39" value="" style="endArrow=none;html=1;exitX=0.5;exitY=1;exitDx=0;exitDy=0;entryX=0.5;entryY=0;entryDx=0;entryDy=0;" parent="1" source="zsDzwsMMpm5HTc5t6nmN-33" target="zsDzwsMMpm5HTc5t6nmN-32" edge="1">
          <mxGeometry width="50" height="50" relative="1" as="geometry">
            <mxPoint x="470" y="1140" as="sourcePoint" />
            <mxPoint x="520" y="1090" as="targetPoint" />
          </mxGeometry>
        </mxCell>
        <mxCell id="zsDzwsMMpm5HTc5t6nmN-40" value="" style="endArrow=none;html=1;exitX=0.5;exitY=1;exitDx=0;exitDy=0;entryX=0.5;entryY=0;entryDx=0;entryDy=0;" parent="1" source="zsDzwsMMpm5HTc5t6nmN-34" target="zsDzwsMMpm5HTc5t6nmN-32" edge="1">
          <mxGeometry width="50" height="50" relative="1" as="geometry">
            <mxPoint x="470" y="1140" as="sourcePoint" />
            <mxPoint x="520" y="1090" as="targetPoint" />
          </mxGeometry>
        </mxCell>
        <mxCell id="zsDzwsMMpm5HTc5t6nmN-41" value="Có" style="rhombus;whiteSpace=wrap;html=1;" parent="1" vertex="1">
          <mxGeometry x="370" y="960" width="80" height="80" as="geometry" />
        </mxCell>
        <mxCell id="zsDzwsMMpm5HTc5t6nmN-42" value="1" style="text;html=1;strokeColor=none;fillColor=none;align=center;verticalAlign=middle;whiteSpace=wrap;rounded=0;" parent="1" vertex="1">
          <mxGeometry x="520" y="970" width="40" height="20" as="geometry" />
        </mxCell>
        <mxCell id="zsDzwsMMpm5HTc5t6nmN-43" value="" style="endArrow=none;html=1;exitX=1;exitY=0.5;exitDx=0;exitDy=0;entryX=0;entryY=0.5;entryDx=0;entryDy=0;" parent="1" source="zsDzwsMMpm5HTc5t6nmN-41" target="zsDzwsMMpm5HTc5t6nmN-32" edge="1">
          <mxGeometry width="50" height="50" relative="1" as="geometry">
            <mxPoint x="470" y="1140" as="sourcePoint" />
            <mxPoint x="520" y="1090" as="targetPoint" />
          </mxGeometry>
        </mxCell>
        <mxCell id="zsDzwsMMpm5HTc5t6nmN-44" value="" style="endArrow=none;html=1;entryX=0.5;entryY=1;entryDx=0;entryDy=0;" parent="1" source="zsDzwsMMpm5HTc5t6nmN-29" target="zsDzwsMMpm5HTc5t6nmN-1" edge="1">
          <mxGeometry width="50" height="50" relative="1" as="geometry">
            <mxPoint x="470" y="730" as="sourcePoint" />
            <mxPoint x="520" y="680" as="targetPoint" />
          </mxGeometry>
        </mxCell>
        <mxCell id="zsDzwsMMpm5HTc5t6nmN-45" value="" style="endArrow=none;html=1;entryX=0;entryY=0.5;entryDx=0;entryDy=0;" parent="1" source="zsDzwsMMpm5HTc5t6nmN-1" target="zsDzwsMMpm5HTc5t6nmN-41" edge="1">
          <mxGeometry width="50" height="50" relative="1" as="geometry">
            <mxPoint x="470" y="730" as="sourcePoint" />
            <mxPoint x="520" y="680" as="targetPoint" />
          </mxGeometry>
        </mxCell>
        <mxCell id="zsDzwsMMpm5HTc5t6nmN-46" value="1" style="text;html=1;strokeColor=none;fillColor=none;align=center;verticalAlign=middle;whiteSpace=wrap;rounded=0;" parent="1" vertex="1">
          <mxGeometry x="220" y="630" width="40" height="20" as="geometry" />
        </mxCell>
        <mxCell id="zsDzwsMMpm5HTc5t6nmN-54" value="Hệ ĐT" style="rounded=1;whiteSpace=wrap;html=1;" parent="1" vertex="1">
          <mxGeometry x="500" y="540" width="80" height="30" as="geometry" />
        </mxCell>
        <mxCell id="zsDzwsMMpm5HTc5t6nmN-55" value="Năm cấp" style="rounded=1;whiteSpace=wrap;html=1;" parent="1" vertex="1">
          <mxGeometry x="720" y="540" width="80" height="30" as="geometry" />
        </mxCell>
        <mxCell id="zsDzwsMMpm5HTc5t6nmN-58" value="" style="endArrow=none;html=1;exitX=0.5;exitY=0;exitDx=0;exitDy=0;entryX=0.5;entryY=1;entryDx=0;entryDy=0;" parent="1" source="zsDzwsMMpm5HTc5t6nmN-55" target="zsDzwsMMpm5HTc5t6nmN-2" edge="1">
          <mxGeometry width="50" height="50" relative="1" as="geometry">
            <mxPoint x="730" y="530" as="sourcePoint" />
            <mxPoint x="780" y="480" as="targetPoint" />
          </mxGeometry>
        </mxCell>
        <mxCell id="--IufygcpAKeQgG4AAk1-1" value="1" style="text;html=1;strokeColor=none;fillColor=none;align=center;verticalAlign=middle;whiteSpace=wrap;rounded=0;" vertex="1" parent="1">
          <mxGeometry x="160" y="720" width="40" height="20" as="geometry" />
        </mxCell>
      </root>
    </mxGraphModel>
  </diagram>
</mxfile>
